<svg width="36" height="39" viewBox="0 0 36 39" fill="none" xmlns="http://www.w3.org/2000/svg">
<path d="M35.7172 6.2905C36.2892 11.267 36.0073 16.5131 34.7451 21.3303C34.4339 22.5177 34.0309 23.6091 33.5778 24.7385C32.9396 26.3302 32.1216 27.7654 31.0864 29.1341C29.7165 30.9454 28.1376 32.5048 26.3196 33.8704C24.3584 35.3437 22.2715 36.5641 20.0461 37.5868C19.3407 37.9108 18.697 38.1967 17.9507 38.4359C14.9443 37.2576 12.1203 35.726 9.5587 33.7743C7.1106 31.9096 5.03288 29.6506 3.49794 26.9856C2.79164 25.7594 2.28243 24.5018 1.81807 23.1627C0.00731518 17.9419 -0.321579 11.8161 0.266649 6.36464C0.349635 5.59702 0.900031 5.19764 1.5627 4.97645L15.1826 0.428357C15.8263 0.213263 16.4338 0.0839019 17.1163 0L13.5637 9.42416L18.6171 13.5994L14.0577 18.9871L18.8501 22.6202L17.8287 27.9366L20.6508 22.6233L16.9704 18.6137L22.4112 13.5994L17.9968 9.1691L22.6318 1.05198L32.1735 4.21675L34.5139 5.00787C35.0765 5.16195 35.6409 5.62722 35.7172 6.29081V6.2905Z" fill="white"/>
</svg>
