<svg width="60" height="64" viewBox="0 0 60 64" fill="none" xmlns="http://www.w3.org/2000/svg">
<path d="M58.6128 10.3229C59.5515 18.4894 59.0889 27.0984 57.0176 35.0036C56.5069 36.9521 55.8456 38.7431 55.102 40.5965C54.0547 43.2085 52.7124 45.5637 51.0136 47.8098C48.7655 50.7822 46.1745 53.3412 43.1911 55.5822C39.9728 57.9999 36.5481 60.0026 32.8962 61.6809C31.7386 62.2126 30.6823 62.6818 29.4576 63.0743C24.524 61.1407 19.8897 58.6273 15.6861 55.4245C11.6687 52.3645 8.25908 48.6574 5.74021 44.2841C4.58115 42.2718 3.74553 40.2081 2.9835 38.0106C0.0120042 29.4431 -0.52772 19.3905 0.437577 10.4445C0.57376 9.18485 1.47697 8.52946 2.56443 8.16648L24.915 0.702945C25.9714 0.34997 26.9683 0.137685 28.0883 0L22.2584 15.4653L30.5511 22.317L23.069 31.1583L30.9335 37.1203L29.2574 45.8447L33.8885 37.1254L27.8489 30.5456L36.7774 22.317L29.5332 15.0467L37.1394 1.72633L52.7975 6.9198L56.6382 8.21804C57.5614 8.47089 58.4876 9.2339 58.6128 10.3229Z" fill="black"/>
</svg>
