<svg width="64" height="64" viewBox="0 0 64 64" fill="none" xmlns="http://www.w3.org/2000/svg">
<path d="M45.7387 0C40.2818 0 35.2043 2.46057 31.8181 6.66591C28.4321 2.46057 23.3546 0 17.8977 0C8.02874 0 0 8.02874 0 17.8977C0 21.6363 1.15602 25.2292 3.34625 28.2969L27.5068 61.4196C27.5361 61.4569 27.5625 61.4887 27.5918 61.523C28.594 62.8488 30.1636 63.6364 31.8181 63.6364C33.4728 63.6364 35.0398 62.8488 36.0446 61.523C36.0739 61.4912 36.1003 61.4569 36.1296 61.4196L60.2981 28.2864C62.4803 25.2292 63.6364 21.6363 63.6364 17.8977C63.6364 8.02874 55.6077 0 45.7387 0Z" fill="black"/>
</svg>
