<svg width="33" height="33" viewBox="0 0 33 33" fill="none" xmlns="http://www.w3.org/2000/svg">
<g clip-path="url(#clip0_19_72)">
<path d="M23.584 0C20.7703 0 18.1522 1.26873 16.4062 3.43711C14.6603 1.26873 12.0422 0 9.22852 0C4.13982 0 0 4.13982 0 9.22852C0 11.1562 0.596072 13.0088 1.72541 14.5906L14.1832 31.6695C14.1983 31.6887 14.2119 31.7051 14.227 31.7228C14.7438 32.4064 15.5531 32.8125 16.4062 32.8125C17.2594 32.8125 18.0674 32.4064 18.5855 31.7228C18.6006 31.7064 18.6142 31.6887 18.6293 31.6695L31.0912 14.5852C32.2164 13.0088 32.8125 11.1562 32.8125 9.22852C32.8125 4.13982 28.6727 0 23.584 0Z" fill="white" stroke="white" stroke-width="0.0640869"/>
</g>
<defs>
<clipPath id="clip0_19_72">
<rect width="32.8125" height="32.8125" fill="white"/>
</clipPath>
</defs>
</svg>
