<svg width="64" height="64" viewBox="0 0 64 64" fill="none" xmlns="http://www.w3.org/2000/svg">
<path d="M8.17578 51.3829L11.6356 54.8427L22.8801 43.5984L19.4202 40.1385L8.17578 51.3829Z" fill="black"/>
<path d="M8.73079 58.8581L4.16037 54.2878C3.5117 53.6392 3.51159 52.5872 4.16037 51.9385L5.27092 50.828C5.9196 50.1793 6.97145 50.1791 7.62022 50.828L12.1906 55.3984C12.8393 56.047 12.8394 57.0989 12.1906 57.7477L11.08 58.8583C10.4312 59.5069 9.37946 59.5069 8.73079 58.8581Z" fill="black"/>
<path d="M20.3302 42.7785L20.2619 42.7102C18.2456 40.6662 16.8989 38.0722 16.3755 35.3138C16.0797 33.7552 17.2656 32.3116 18.8511 32.3626C19.9868 32.3999 20.9651 33.2119 21.1622 34.3312C21.4875 36.1737 22.3732 37.8827 23.745 39.2737C25.2059 40.7034 26.9558 41.6384 28.8708 41.9879C29.9892 42.193 30.7892 43.1902 30.81 44.3284V44.3336C30.8386 45.8482 29.4883 47.072 27.9981 46.7979C25.1185 46.2697 22.4251 44.8735 20.3302 42.7785Z" fill="black"/>
<path d="M23.6818 39.3363C24.9534 40.5801 26.4524 41.4235 28.0792 41.8585L52.2255 17.7122L56.572 6.44605L45.3059 10.7925L21.2227 34.8756C21.6095 36.5303 22.4319 38.0689 23.6818 39.3363Z" fill="black"/>
</svg>
