<svg width="41" height="41" viewBox="0 0 41 41" fill="none" xmlns="http://www.w3.org/2000/svg">
<path d="M5.23745 32.9172L7.45392 35.1336L14.6574 27.9302L12.4409 25.7137L5.23745 32.9172Z" fill="white"/>
<path d="M5.59324 37.706L2.66531 34.7781C2.24976 34.3626 2.24969 33.6887 2.66531 33.2731L3.37676 32.5617C3.79232 32.1461 4.46616 32.146 4.88178 32.5617L7.80971 35.4896C8.22526 35.9051 8.22533 36.579 7.80971 36.9946L7.09819 37.7061C6.68257 38.1216 6.00879 38.1216 5.59324 37.706Z" fill="white"/>
<path d="M13.024 27.405L12.9802 27.3612C11.6885 26.0518 10.8258 24.39 10.4905 22.6229C10.301 21.6244 11.0607 20.6996 12.0764 20.7323C12.804 20.7562 13.4307 21.2764 13.557 21.9934C13.7654 23.1738 14.3328 24.2686 15.2116 25.1597C16.1475 26.0756 17.2685 26.6746 18.4953 26.8985C19.2118 27.0299 19.7243 27.6687 19.7376 28.3979L19.7376 28.4012C19.7559 29.3715 18.8909 30.1555 17.9362 29.9799C16.0915 29.6415 14.366 28.7471 13.024 27.405Z" fill="white"/>
<path d="M15.1717 25.1998C15.9863 25.9966 16.9466 26.5369 17.9888 26.8156L33.4575 11.3469L36.242 4.1295L29.0246 6.91394L13.5963 22.3422C13.8441 23.4022 14.371 24.3879 15.1717 25.1998Z" fill="white"/>
</svg>
